<?xml version="1.0" standalone="no"?>
<!DOCTYPE svg PUBLIC "-//W3C//DTD SVG 20010904//EN"
 "http://www.w3.org/TR/2001/REC-SVG-20010904/DTD/svg10.dtd">
<svg version="1.0" xmlns="http://www.w3.org/2000/svg"
 width="420.000000pt" height="420.000000pt" viewBox="0 0 420.000000 420.000000"
 preserveAspectRatio="xMidYMid meet">
<metadata>
Created by potrace 1.14, written by Peter Selinger 2001-2017
</metadata>
<g transform="translate(0.000000,420.000000) scale(0.100000,-0.100000)"
fill="#000000" stroke="none">
<path d="M2046 3913 c-3 -4 -46 -8 -94 -10 -78 -3 -127 -8 -127 -13 0 -1 -20
-3 -45 -5 -25 -2 -47 -4 -50 -5 -3 -1 -8 -2 -12 -1 -5 0 -8 -3 -8 -8 0 -5 -10
-9 -22 -9 -29 0 -56 -6 -64 -15 -4 -4 -18 -7 -30 -7 -13 0 -26 -5 -29 -10 -4
-6 -12 -10 -18 -9 -18 2 -57 -12 -57 -21 0 -5 -9 -6 -20 -3 -12 3 -20 0 -20
-8 0 -7 -3 -9 -6 -6 -4 4 -20 -3 -37 -15 -17 -12 -27 -16 -23 -9 6 10 3 10
-15 -1 -13 -7 -28 -19 -32 -26 -5 -7 -12 -10 -17 -7 -12 8 -131 -56 -124 -67
3 -4 -2 -5 -10 -2 -9 4 -18 -1 -22 -10 -3 -9 -10 -13 -15 -10 -5 3 -9 0 -9 -7
0 -7 -3 -10 -6 -7 -12 13 -157 -99 -269 -209 -41 -39 -77 -68 -81 -65 -4 4 -4
2 -1 -4 3 -6 -4 -20 -16 -31 -12 -10 -33 -34 -47 -53 -14 -18 -35 -44 -48 -57
-13 -13 -20 -23 -17 -23 4 0 0 -7 -7 -15 -27 -30 -38 -44 -38 -50 0 -3 -5 -11
-10 -18 -39 -46 -172 -307 -180 -352 -1 -3 -12 -35 -25 -72 -13 -38 -25 -77
-27 -88 -1 -11 -7 -23 -13 -27 -6 -5 -5 -8 4 -8 10 0 11 -3 2 -14 -12 -14 -18
-34 -26 -96 -6 -42 -13 -75 -15 -75 -6 0 -11 -111 -12 -235 -1 -171 5 -300 13
-300 3 0 5 -12 5 -27 -1 -16 3 -37 8 -47 8 -19 15 -57 19 -103 0 -13 4 -23 7
-23 4 0 7 -6 8 -12 0 -7 3 -24 7 -38 3 -14 8 -36 11 -50 3 -13 9 -29 13 -35 7
-9 20 -48 27 -84 1 -8 6 -17 11 -20 4 -3 9 -14 11 -23 4 -24 102 -212 113
-216 5 -2 7 -8 3 -13 -3 -5 0 -9 5 -9 6 0 11 -7 11 -15 0 -7 6 -18 14 -22 8
-4 15 -11 15 -16 1 -10 32 -58 49 -76 7 -8 21 -25 30 -39 34 -51 224 -252 239
-252 3 0 13 -7 22 -15 41 -39 97 -85 104 -85 4 0 17 -9 29 -20 12 -11 28 -20
35 -20 7 0 13 -4 13 -9 0 -5 22 -20 50 -33 27 -14 47 -28 43 -31 -3 -4 -1 -7
7 -7 7 0 45 -15 84 -34 127 -60 171 -79 186 -82 8 -2 60 -16 115 -32 55 -16
123 -33 150 -37 86 -12 119 -16 155 -18 19 -1 40 -4 45 -7 9 -5 223 -5 235 0
3 1 25 3 50 5 25 2 59 6 75 9 17 3 48 8 70 11 22 3 49 10 60 15 36 15 156 41
166 35 5 -4 9 -1 9 4 0 6 7 11 15 11 8 0 38 11 67 24 29 14 60 26 68 28 8 2
21 9 28 16 8 7 18 10 23 7 5 -4 9 -1 9 4 0 6 3 10 8 9 14 -3 82 32 82 43 0 6
7 9 15 5 8 -3 15 -1 15 4 0 6 7 10 15 10 8 0 15 5 15 11 0 5 5 7 10 4 6 -3 13
1 16 9 3 9 10 13 15 10 5 -3 9 -1 9 5 0 5 9 13 21 16 12 4 29 14 39 23 37 34
48 41 54 35 3 -4 6 1 6 10 0 9 3 16 8 14 4 -1 18 8 31 20 13 12 29 19 35 16 6
-3 8 -3 4 1 -3 4 12 24 35 44 51 46 145 142 139 142 -2 0 14 19 37 42 22 24
41 46 41 49 0 3 11 19 25 35 14 16 25 35 25 42 0 7 5 10 10 7 6 -3 10 1 10 9
0 9 5 16 11 16 5 0 8 4 5 9 -3 5 1 14 9 21 8 7 15 19 15 26 0 8 5 14 10 14 6
0 10 7 10 15 0 8 3 15 8 15 4 0 13 15 21 33 8 17 20 39 27 47 7 8 13 18 13 23
0 18 26 77 34 77 4 0 5 5 2 10 -3 6 -1 10 5 10 6 0 8 5 5 10 -4 6 -2 16 3 23
15 19 56 143 69 207 2 14 7 32 10 40 3 8 8 24 10 34 2 11 9 26 16 35 10 12 9
13 -2 6 -11 -6 -13 -4 -6 11 4 10 9 33 10 49 2 17 4 32 5 35 1 3 2 9 1 14 -1
4 2 13 7 20 8 11 7 413 -2 496 -6 47 -13 95 -16 95 -2 0 -10 44 -13 70 -1 11
-5 23 -10 26 -4 3 -9 20 -10 37 -1 18 -5 32 -10 32 -4 0 -6 3 -5 8 1 4 -5 27
-12 52 -7 25 -13 48 -12 53 1 4 -2 7 -7 7 -5 0 -12 14 -16 31 -4 17 -16 51
-26 75 -11 24 -19 47 -19 50 1 4 -2 10 -7 13 -15 11 -43 68 -36 75 3 3 1 6 -5
6 -6 0 -19 17 -29 38 -9 20 -20 39 -23 42 -3 3 -20 26 -37 52 -36 55 -75 107
-120 159 -18 20 -33 42 -33 48 0 7 -5 9 -10 6 -6 -3 -13 1 -16 10 -15 39 -249
235 -326 274 -16 8 -28 18 -28 23 0 4 -6 8 -13 8 -7 0 -23 9 -34 19 -12 11
-24 17 -27 14 -3 -4 -6 -1 -6 6 0 7 -4 10 -9 6 -5 -3 -16 1 -24 9 -8 8 -17 12
-21 9 -3 -4 -6 -1 -6 5 0 7 -9 12 -20 12 -11 0 -20 5 -20 10 0 6 -3 9 -7 8 -5
-1 -21 4 -36 10 -16 7 -33 12 -38 12 -5 0 -9 4 -9 10 0 5 -7 7 -15 4 -8 -4
-15 -1 -15 6 0 7 -8 10 -20 7 -11 -3 -20 -2 -20 2 0 6 -44 24 -90 36 -3 1 -25
7 -50 14 -25 8 -54 15 -65 16 -11 1 -20 3 -20 5 0 1 -9 3 -20 5 -11 2 -31 6
-45 9 -31 7 -127 16 -242 21 -49 2 -92 6 -97 9 -4 3 -11 3 -15 -1z"/>
</g>
</svg>
