<?xml version="1.0" standalone="no"?>
<!DOCTYPE svg PUBLIC "-//W3C//DTD SVG 20010904//EN" "http://www.w3.org/TR/2001/REC-SVG-20010904/DTD/svg10.dtd">
<svg version="1.0" xmlns="http://www.w3.org/2000/svg" width="53.87pt" height="43.61pt"
        viewBox="0 0 300.000000 291.000000" preserveAspectRatio="xMidYMid meet">
        <metadata>
                Created by potrace 1.10, written by Peter Selinger 2001-2011
        </metadata>
        <g transform="translate(0.000000,291.000000) scale(0.100000,-0.100000)" fill="#6a77dc" stroke="none">
                <path d="M1335 2873 c-232 -30 -474 -121 -675 -254 -197 -131 -412 -378 -504
-581 -92 -203 -121 -346 -120 -593 0 -169 3 -203 26 -302 63 -266 183 -478
384 -678 206 -204 466 -342 768 -407 148 -32 427 -32 576 1 405 87 734 306
953 634 145 218 221 481 221 767 1 177 -12 260 -60 410 -90 275 -279 535 -519
713 -49 37 -153 98 -230 137 -226 112 -435 161 -670 158 -66 0 -133 -3 -150
-5z m465 -212 c228 -77 389 -240 445 -451 19 -72 19 -230 0 -305 -37 -143
-157 -313 -268 -379 -39 -22 -50 -24 -128 -19 -72 5 -92 2 -132 -15 -66 -29
-531 -278 -592 -317 -168 -106 -330 -344 -360 -524 l-7 -45 -14 26 c-30 56
-46 160 -39 243 13 154 69 270 184 385 71 71 96 86 386 244 345 188 379 210
463 301 95 104 151 234 152 350 1 196 -172 398 -420 491 l-84 32 34 11 c20 6
90 9 160 7 109 -3 137 -7 220 -35z m-420 -65 c76 -26 95 -38 158 -98 51 -49
87 -118 77 -150 -5 -13 -3 -18 3 -14 6 3 13 3 16 -2 2 -4 -3 -13 -13 -19 -16
-10 -20 -7 -30 14 -9 20 -9 29 1 41 7 9 8 13 2 9 -7 -4 -32 19 -59 55 -80 101
-220 175 -342 179 -29 2 -53 7 -53 12 0 17 167 -3 240 -27z m-267 17 c-7 -2
-21 -2 -30 0 -10 3 -4 5 12 5 17 0 24 -2 18 -5z m157 -120 c37 -47 8 -106 -51
-106 -60 0 -91 71 -49 113 29 29 74 26 100 -7z m1217 -123 c118 -122 195 -228
263 -365 68 -137 97 -240 109 -388 12 -130 10 -193 -6 -190 -12 2 -12 -21 0
-33 4 -4 7 -19 7 -33 0 -20 -2 -23 -10 -11 -8 12 -13 13 -29 3 -15 -10 -21
-10 -24 0 -3 7 -6 2 -6 -10 -1 -12 -4 -24 -8 -26 -5 -3 -8 65 -8 151 -1 169
-13 261 -52 387 -48 152 -108 241 -208 306 -61 41 -66 47 -86 109 -23 69 -64
155 -98 205 -12 17 -21 34 -21 38 0 17 97 -62 177 -143z m-1666 77 c17 -31 -4
-67 -39 -67 -34 0 -52 16 -52 46 0 48 69 64 91 21z m218 1 c33 -59 -28 -121
-83 -85 -34 23 -43 60 -21 93 23 35 83 31 104 -8z m439 -65 c35 -30 38 -68 8
-97 -31 -31 -45 -32 -80 -5 -17 13 -26 30 -26 49 0 19 9 36 26 49 32 26 46 26
72 4z m271 -46 c6 -8 8 -17 4 -20 -7 -8 -33 11 -33 24 0 13 16 11 29 -4z
m-122 -44 c-4 -3 -7 0 -7 7 0 7 3 10 7 7 3 -4 3 -10 0 -14z m133 3 c0 -3 -5
-8 -12 -12 -7 -4 -8 -3 -4 4 7 12 16 16 16 8z m-512 -33 c32 -27 37 -64 12
-96 -39 -50 -110 -23 -112 42 -2 59 57 90 100 54z m372 13 c0 -3 -5 -8 -12
-12 -7 -4 -8 -3 -4 4 7 12 16 16 16 8z m-996 -22 c30 -29 9 -84 -31 -84 -23 0
-53 29 -53 51 0 23 26 49 50 49 10 0 26 -7 34 -16z m190 0 c31 -30 9 -84 -34
-84 -24 0 -50 26 -50 50 0 24 26 50 50 50 10 0 26 -7 34 -16z m216 -24 c25
-25 25 -51 2 -80 -34 -42 -112 -15 -112 39 0 54 70 81 110 41z m727 13 c-4 -3
-10 -3 -14 0 -3 4 0 7 7 7 7 0 10 -3 7 -7z m-289 -90 c31 -28 35 -56 11 -86
-34 -44 -91 -31 -104 25 -5 21 -1 33 19 52 30 31 46 32 74 9z m1034 -89 c45
-31 94 -102 110 -158 30 -106 1 -296 -67 -441 -63 -132 -68 -137 -658 -748
-163 -169 -313 -331 -332 -359 -19 -29 -47 -86 -61 -127 -15 -42 -28 -77 -29
-79 -2 -2 -49 5 -105 14 -118 18 -224 51 -309 94 -54 27 -61 34 -76 81 -20 59
-23 189 -6 264 32 139 159 316 279 389 152 92 419 226 450 226 50 0 86 -41 79
-87 -4 -20 -17 -47 -29 -61 l-23 -24 35 7 c19 4 53 17 76 30 43 25 359 343
448 452 101 122 155 267 163 441 3 61 8 112 11 112 3 0 23 -12 44 -26z m-2060
-16 c26 -22 29 -47 8 -68 -24 -24 -43 -25 -64 -4 -43 42 9 109 56 72z m192 -4
c9 -8 16 -24 16 -34 0 -22 -26 -50 -46 -50 -15 0 -54 35 -54 48 0 4 7 18 16
30 18 26 46 28 68 6z m190 0 c24 -24 20 -63 -8 -75 -48 -22 -95 33 -60 72 21
23 47 24 68 3z m215 -60 c12 -15 21 -33 21 -41 0 -19 -45 -63 -65 -63 -23 0
-65 45 -65 70 0 27 35 60 64 60 15 0 33 -11 45 -26z m219 -11 c48 -41 23 -113
-38 -113 -55 0 -79 71 -38 110 27 25 49 25 76 3z m-613 -158 c0 -26 -3 -30
-29 -30 -32 0 -53 23 -43 49 5 12 16 16 39 14 29 -3 33 -6 33 -33z m197 18
c22 -20 23 -56 2 -77 -20 -21 -43 -20 -66 1 -22 20 -23 51 -1 75 20 22 41 23
65 1z m-384 -15 c20 -20 14 -56 -13 -74 -24 -16 -27 -16 -45 1 -36 32 -20 85
25 85 12 0 26 -5 33 -12z m596 -79 c41 -36 16 -105 -34 -92 -45 12 -58 71 -21
100 22 17 27 16 55 -8z m-448 -108 c-15 -16 -15 -19 -1 -31 13 -11 18 -11 28
0 10 10 9 12 -5 7 -10 -3 -20 -2 -23 3 -4 6 1 10 9 10 9 0 16 6 17 13 0 6 5 1
10 -12 5 -13 8 -29 6 -34 -5 -15 -39 -18 -54 -5 -15 12 -18 62 -4 53 5 -3 12
-1 16 5 3 5 9 10 12 10 3 0 -1 -8 -11 -19z m-187 -83 c1 7 6 10 11 7 6 -3 10
-1 10 4 0 6 -5 11 -12 11 -6 0 -9 2 -6 5 9 9 38 -6 38 -20 0 -7 -9 -15 -21
-18 -12 -3 -18 -10 -15 -16 4 -6 13 -8 21 -4 8 3 15 0 15 -6 0 -6 -7 -11 -16
-11 -29 0 -54 20 -54 44 0 32 14 42 21 14 4 -13 7 -17 8 -10z m2448 -145 c-4
-3 -10 -3 -14 0 -3 4 0 7 7 7 7 0 10 -3 7 -7z m-40 -72 c0 -11 -5 -18 -9 -15
-4 3 -5 11 -1 19 7 21 12 19 10 -4z m3 -35 c0 -2 -7 -7 -16 -10 -8 -3 -12 -2
-9 4 6 10 25 14 25 6z m-44 -28 c4 -7 3 -8 -4 -4 -7 4 -12 2 -12 -5 0 -7 -3
-10 -6 -6 -6 5 3 27 11 27 2 0 7 -5 11 -12z m44 8 c0 -3 -5 -8 -12 -12 -7 -4
-8 -3 -4 4 7 12 16 16 16 8z m-6 -34 c3 -5 -1 -9 -9 -9 -8 0 -12 4 -9 9 3 4 7
8 9 8 2 0 6 -4 9 -8z m11 -32 c3 -5 4 -10 1 -10 -3 0 -8 5 -11 10 -3 6 -4 10
-1 10 3 0 8 -4 11 -10z" />
                <path d="M2795 1400 c-3 -6 2 -13 12 -17 10 -3 23 -8 28 -11 6 -3 1 4 -9 16
-22 25 -23 25 -31 12z" />
                <path d="M1023 1723 c-21 -4 -41 -33 -23 -33 6 0 10 5 10 10 0 6 11 10 25 10
14 0 25 5 25 10 0 6 -3 9 -7 9 -5 -1 -18 -4 -30 -6z" />
                <path d="M1013 1676 c-3 -5 -1 -6 5 -2 5 3 12 1 14 -6 4 -12 28 -3 28 12 0 11
-40 8 -47 -4z" />
        </g>
</svg>